<?xml version="1.0" encoding="utf-8"?>
<!-- Generator: Adobe Illustrator 15.0.2, SVG Export Plug-In . SVG Version: 6.00 Build 0)  -->
<!DOCTYPE svg PUBLIC "-//W3C//DTD SVG 1.1//EN" "http://www.w3.org/Graphics/SVG/1.1/DTD/svg11.dtd">
<svg xmlns="http://www.w3.org/2000/svg" xmlns:xlink="http://www.w3.org/1999/xlink" version="1.1" id="Layer_1" x="0px" y="0px" width="48px" height="48px" viewBox="0 0 96 96" enable-background="new 0 0 96 96" xml:space="preserve">
<g>
	<g>
		<linearGradient id="SVGID_1_" gradientUnits="userSpaceOnUse" x1="26.5669" y1="7.2266" x2="95.0848" y2="83.3234">
			<stop offset="0.1595" style="stop-color:#21409A"/>
			<stop offset="0.3926" style="stop-color:#1C75BC"/>
			<stop offset="0.5587" style="stop-color:#2087C9"/>
			<stop offset="0.8337" style="stop-color:#25A1DA"/>
			<stop offset="1" style="stop-color:#27AAE1"/>
		</linearGradient>
		<path fill="url(#SVGID_1_)" d="M93.029,84.348c-0.132,0-0.257-0.009-0.38-0.03L30.643,74.94c-1.01-0.151-1.81-0.928-1.99-1.932    c-0.18-1,0.293-2.007,1.18-2.505l16.631-9.317C36.314,37.618,22.513,32.64,12.668,32.64c-5.158,0-8.752,1.438-8.788,1.452    c-0.28,0.117-0.588,0.179-0.908,0.179c-0.793,0-1.533-0.393-1.978-1.051c-0.632-0.938-0.515-2.202,0.279-3.006    c12.156-12.316,24.918-18.561,37.934-18.561c20.088,0,34.746,14.729,39.836,20.669l10.838-14.52    c0.444-0.599,1.158-0.958,1.909-0.958c0.243,0,0.486,0.037,0.722,0.111c0.977,0.315,1.641,1.208,1.661,2.225l1.24,62.74    c0.012,0.704-0.282,1.372-0.808,1.836C94.16,84.14,93.603,84.348,93.029,84.348z"/>
		<path d="M39.207,12.652c20.848,0,35.739,16.213,39.881,21.28l11.595-15.533c0.265-0.357,0.681-0.557,1.107-0.557    c0.139,0,0.283,0.021,0.424,0.065c0.561,0.181,0.947,0.699,0.959,1.29l1.24,62.739c0.007,0.407-0.168,0.801-0.47,1.067    c-0.259,0.224-0.58,0.343-0.914,0.343c-0.072,0-0.141-0.004-0.208-0.016l-62.029-9.38c-0.585-0.088-1.05-0.536-1.155-1.12    c-0.105-0.582,0.169-1.166,0.685-1.456l17.413-9.755C37.357,36.877,22.976,31.64,12.668,31.64c-5.414,0-9.128,1.511-9.167,1.526    c-0.172,0.072-0.351,0.104-0.529,0.104c-0.449,0-0.885-0.22-1.149-0.611c-0.367-0.545-0.301-1.274,0.162-1.743    C13.946,18.797,26.47,12.652,39.207,12.652 M39.207,10.652c-13.292,0-26.295,6.345-38.646,18.859    c-1.127,1.141-1.294,2.935-0.397,4.266c0.633,0.936,1.682,1.494,2.808,1.494c0.453,0,0.891-0.087,1.303-0.26    c0.015-0.005,3.457-1.371,8.393-1.371c9.429,0,22.621,4.757,32.517,27.117l-15.84,8.874c-1.259,0.708-1.932,2.137-1.676,3.557    c0.256,1.424,1.392,2.527,2.826,2.742l62.028,9.38c0.131,0.023,0.312,0.038,0.507,0.038c0.813,0,1.603-0.295,2.222-0.829    c0.761-0.673,1.179-1.62,1.162-2.614l-1.24-62.746c-0.029-1.444-0.972-2.711-2.346-3.154c-0.349-0.109-0.692-0.162-1.037-0.162    c-1.066,0-2.081,0.511-2.715,1.367L78.981,30.732C73.166,24.212,58.716,10.652,39.207,10.652L39.207,10.652z"/>
	</g>
</g>
</svg>
