<?xml version="1.0" encoding="utf-8"?>
<!-- Generator: Adobe Illustrator 15.0.2, SVG Export Plug-In . SVG Version: 6.00 Build 0)  -->
<!DOCTYPE svg PUBLIC "-//W3C//DTD SVG 1.1//EN" "http://www.w3.org/Graphics/SVG/1.1/DTD/svg11.dtd">
<svg xmlns="http://www.w3.org/2000/svg" xmlns:xlink="http://www.w3.org/1999/xlink" version="1.1" id="Layer_1" x="0px" y="0px" width="48px" height="48px" viewBox="0 0 96 96" enable-background="new 0 0 96 96" xml:space="preserve">
<g>
	<g>
		<linearGradient id="SVGID_1_" gradientUnits="userSpaceOnUse" x1="1.5718" y1="83.9082" x2="68.4258" y2="7.0014">
			<stop offset="0" style="stop-color:#F9ED32"/>
			<stop offset="0.0261" style="stop-color:#F9EA33"/>
			<stop offset="0.2932" style="stop-color:#FACA3A"/>
			<stop offset="0.5189" style="stop-color:#FBB73E"/>
			<stop offset="0.6748" style="stop-color:#FBB040"/>
			<stop offset="0.9448" style="stop-color:#F15A29"/>
		</linearGradient>
		<path fill="url(#SVGID_1_)" d="M2.971,84.348c-0.574,0-1.13-0.208-1.568-0.586c-0.533-0.472-0.828-1.14-0.816-1.841l1.24-62.742    c0.021-1.018,0.684-1.91,1.652-2.222c0.244-0.077,0.487-0.114,0.73-0.114c0.751,0,1.465,0.359,1.911,0.961l10.836,14.517    c5.089-5.94,19.748-20.669,39.836-20.669c13.015,0,25.778,6.245,37.935,18.561c0.793,0.804,0.911,2.067,0.279,3.004    c-0.445,0.66-1.185,1.053-1.979,1.053c-0.32,0-0.629-0.062-0.917-0.183c-0.026-0.011-3.621-1.448-8.779-1.448    c-9.845,0-23.646,4.979-33.795,28.547l16.63,9.317c0.888,0.499,1.361,1.506,1.181,2.507c-0.18,1.002-0.979,1.778-1.991,1.931    L3.328,84.32C3.227,84.339,3.103,84.348,2.971,84.348z"/>
		<path d="M56.793,12.652c12.737,0,25.261,6.145,37.223,18.264c0.463,0.469,0.529,1.198,0.162,1.743    c-0.265,0.392-0.701,0.611-1.149,0.611c-0.179,0-0.357-0.032-0.529-0.104c-0.038-0.016-3.753-1.526-9.167-1.526    c-10.308,0-24.689,5.237-35.066,29.981l17.413,9.755c0.516,0.29,0.79,0.874,0.685,1.456c-0.104,0.584-0.57,1.032-1.155,1.12    l-62.029,9.38c-0.067,0.012-0.136,0.016-0.208,0.016c-0.334,0-0.655-0.119-0.914-0.343c-0.302-0.267-0.477-0.66-0.47-1.067    l1.24-62.739c0.012-0.591,0.398-1.109,0.959-1.29c0.141-0.044,0.285-0.065,0.424-0.065c0.427,0,0.843,0.199,1.107,0.557    l11.595,15.533C21.054,28.865,35.945,12.652,56.793,12.652 M56.793,10.652c-19.509,0-33.959,13.56-39.774,20.08L6.92,17.203    c-0.629-0.85-1.644-1.36-2.71-1.36c-0.345,0-0.688,0.053-1.021,0.156c-1.391,0.448-2.333,1.716-2.362,3.16l-1.24,62.74    c-0.017,1,0.4,1.947,1.145,2.605c0.636,0.549,1.425,0.844,2.238,0.844c0.196,0,0.376-0.015,0.551-0.045l61.985-9.373    c1.434-0.216,2.57-1.318,2.825-2.745c0.257-1.415-0.415-2.845-1.673-3.552l-15.844-8.876c9.896-22.36,23.088-27.117,32.517-27.117    c4.937,0,8.379,1.365,8.413,1.379c0.391,0.164,0.829,0.252,1.283,0.252c1.126,0,2.176-0.558,2.807-1.491    c0.898-1.333,0.73-3.127-0.396-4.269C83.088,16.998,70.085,10.652,56.793,10.652L56.793,10.652z"/>
	</g>
</g>
</svg>
